<?xml version="1.0" encoding="UTF-8" standalone="no"?>
<svg
   fill="#ebebec"
   version="1.1"
   id="Capa_1"
   width="32"
   height="17"
   viewBox="0 0 481 255.53125"
   xml:space="preserve"
   sodipodi:docname="camp.svg"
   inkscape:version="1.3.2 (091e20e, 2023-11-25, custom)"
   xmlns:inkscape="http://www.inkscape.org/namespaces/inkscape"
   xmlns:sodipodi="http://sodipodi.sourceforge.net/DTD/sodipodi-0.dtd"
   xmlns="http://www.w3.org/2000/svg"
   xmlns:svg="http://www.w3.org/2000/svg"><defs
   id="defs1" /><sodipodi:namedview
   id="namedview1"
   pagecolor="#505050"
   bordercolor="#ffffff"
   borderopacity="1"
   inkscape:showpageshadow="0"
   inkscape:pageopacity="0"
   inkscape:pagecheckerboard="1"
   inkscape:deskcolor="#d1d1d1"
   inkscape:zoom="20.5625"
   inkscape:cx="16"
   inkscape:cy="9.993921"
   inkscape:window-width="2560"
   inkscape:window-height="1369"
   inkscape:window-x="-8"
   inkscape:window-y="73"
   inkscape:window-maximized="1"
   inkscape:current-layer="Capa_1" />
  <g
   id="SVGRepo_iconCarrier"
   transform="matrix(0.296875,0,0,0.29215684,97.703125,-12.761633)">
    <g
   id="g2">
      <path
   d="M 523.7,218.719 603,97.918 c 10.6,-16.199 6.1,-37.899 -10.1,-48.5 -16.2,-10.6 -37.9,-6.1 -48.5,10.101 l -62.601,95.5 -0.8,-1.3 -1,1.5 -62.8,-95.7 c -10.601,-16.2 -32.3,-20.7 -48.5,-10.101 -16.2,10.601 -20.7,32.301 -10.101,48.5 l 79.5,121.101 -392,597.3 h 178.3 c 9.7,0 19.4,-1.6 28.5,-4.899 143.6,-52 198.7,-213 218.3,-298.2 2.399,-10.4 17.1,-10.4 19.5,0 19.5,85.1 74.7,246.1 218.3,298.2 9.1,3.3 18.8,4.899 28.5,4.899 h 178.3 z"
   id="path1" />
      <path
   d="M 935.8,848.318 H 26.2 c -14.5,0 -26.2,11.2 -26.2,25 v 20 c 0,13.8 11.7,25 26.2,25 h 909.6 c 14.5,0 26.2,-11.2 26.2,-25 v -20 c 0,-13.799 -11.7,-25 -26.2,-25 z"
   id="path2" />
    </g>
  </g>
</svg>
