<?xml version="1.0" encoding="UTF-8" standalone="no"?>
<svg
  height="17"
  width="32"
  version="1.1"
  id="Capa_1"
  viewBox="0 0 21.993 11.683781"
  xml:space="preserve"
  fill="#ebebec"
  xmlns="http://www.w3.org/2000/svg"
  xmlns:svg="http://www.w3.org/2000/svg"
>
  <g id="g6" transform="matrix(0.31290255,0,0,0.31250291,4.1148342,2.8120404e-4)">
    <path
      d="m 6.681,15.541852 v 14.2715 h 2.283 c 1.186,0 2.149,-0.8177 2.149,-1.82665 v -14.2715 H 8.829 c -1.186,0 -2.148,0.8177 -2.148,1.82665 z"
      id="path1"
      style="stroke-width: 0.921954"
    />
    <path
      d="m 15.412,15.541852 v 14.2715 h 2.284 c 1.185,0 2.149,-0.8177 2.149,-1.82665 v -14.2715 h -2.284 c -1.188,0 -2.149,0.8177 -2.149,1.82665 z"
      id="path2"
      style="stroke-width: 0.921954"
    />
    <path
      d="m 24.142,15.541852 v 14.2715 h 2.284 c 1.185,0 2.149,-0.8177 2.149,-1.82665 v -14.2715 h -2.283 c -1.188,0 -2.15,0.8177 -2.15,1.82665 z"
      id="path3"
      style="stroke-width: 0.921954"
    />
    <path
      d="m 32.873,15.541852 v 14.2715 h 2.283 c 1.186,0 2.149,-0.8177 2.149,-1.82665 v -14.2715 h -2.283 c -1.188,0 -2.149,0.8177 -2.149,1.82665 z"
      id="path4"
      style="stroke-width: 0.921954"
    />
    <path
      d="m 40.663,10.709602 c 0,-0.6936 -0.835053,-1.7161497 -1.865477,-2.2839497 L 24.283356,0.43395248 c -1.030424,-0.56694999 -2.713134,-0.58139999 -3.759314,-0.0323 L 5.215787,8.4579523 c -1.0451293,0.5491 -1.8927869,1.5571997 -1.8927869,2.2507997 v 1.2563 H 40.663 c 0,0 0,-0.56185 0,-1.25545 z"
      id="path5"
      style="stroke-width: 0.944893"
    />
    <path
      d="m 3.323,35.560202 c 0,1.00895 0.961,1.82665 2.149,1.82665 h 33.042 c 1.186,0 2.149,-0.8177 2.149,-1.82665 v -3.2725 H 3.323 Z"
      id="path6"
      style="stroke-width: 0.921954"
    />
  </g>
</svg>
