<?xml version="1.0" encoding="UTF-8" standalone="no"?>
<svg
   width="32"
   height="17"
   viewBox="0 0 16 8.5"
   fill="#000000"
   version="1.1"
   id="svg2"
   sodipodi:docname="subway.svg"
   inkscape:version="1.3.2 (091e20e, 2023-11-25, custom)"
   xmlns:inkscape="http://www.inkscape.org/namespaces/inkscape"
   xmlns:sodipodi="http://sodipodi.sourceforge.net/DTD/sodipodi-0.dtd"
   xmlns="http://www.w3.org/2000/svg"
   xmlns:svg="http://www.w3.org/2000/svg">
  <defs
     id="defs1" />
  <sodipodi:namedview
     id="namedview1"
     pagecolor="#505050"
     bordercolor="#ffffff"
     borderopacity="1"
     inkscape:showpageshadow="0"
     inkscape:pageopacity="0"
     inkscape:pagecheckerboard="1"
     inkscape:deskcolor="#d1d1d1"
     inkscape:zoom="12.125"
     inkscape:cx="16"
     inkscape:cy="10.020619"
     inkscape:window-width="2560"
     inkscape:window-height="1369"
     inkscape:window-x="-8"
     inkscape:window-y="73"
     inkscape:window-maximized="1"
     inkscape:current-layer="svg2" />
  <g
     id="SVGRepo_iconCarrier"
     transform="matrix(0.265625,0,0,0.265625,3.75,0)">
    <g
       fill="none"
       fill-rule="evenodd"
       id="g2">
      <path
         d="M 0,0 H 32 V 32 H 0 Z"
         id="path1" />
      <path
         d="m 21.468648,0 c 3.027605,0 5.580868,2.2556301 5.954208,5.260128 l 1.739645,14 c 0.401624,3.232114 -1.846778,6.182744 -5.046272,6.670826 l 2.385822,4.131224 c 0.276142,0.478292 0.112267,1.089883 -0.366026,1.366025 C 25.657733,31.704346 25.046142,31.54047 24.77,31.062178 L 23.578707,29 H 8.4227066 L 7.2320508,31.062178 C 6.9559084,31.54047 6.344318,31.704346 5.8660254,31.428203 5.3877328,31.152061 5.2238576,30.54047 5.5,30.062178 L 7.8849891,25.931935 C 5.001516,25.494849 2.7917066,23.005489 2.7917066,20 c 0,-0.247332 0.015293,-0.494427 0.045792,-0.739872 l 1.7396449,-14 C 4.9504838,2.2556301 7.5037468,0 10.531352,0 Z m 0.378059,26 h -11.692 L 9.5777066,27 H 22.424707 Z M 10.5,19 C 9.6715729,19 9,19.671573 9,20.5 9,21.328427 9.6715729,22 10.5,22 11.328427,22 12,21.328427 12,20.5 12,19.671573 11.328427,19 10.5,19 Z m 11,0 C 20.671573,19 20,19.671573 20,20.5 20,21.328427 20.671573,22 21.5,22 22.328427,22 23,21.328427 23,20.5 23,19.671573 22.328427,19 21.5,19 Z M 21.095051,8 H 10.904949 C 9.8977909,8 9.0477562,8.7489198 8.9208819,9.7480549 L 8.2859613,14.748055 C 8.2753502,14.831617 8.2700287,14.915767 8.2700287,15 c 0,1.104569 0.8954305,2 2.0000003,2 h 11.459942 c 0.08423,0 0.168383,-0.0053 0.251945,-0.01593 1.095771,-0.139145 1.871268,-1.140242 1.732123,-2.236012 L 23.079118,9.7480549 C 22.952244,8.7489198 22.102209,8 21.095051,8 Z M 19,4 h -6 c -0.552285,0 -1,0.4477152 -1,1 0,0.5522847 0.447715,1 1,1 h 6 C 19.552285,6 20,5.5522847 20,5 20,4.4477152 19.552285,4 19,4 Z"
         fill="#ebebec"
         id="path2" />
    </g>
  </g>
</svg>
