<?xml version="1.0" encoding="UTF-8" standalone="no"?>
<svg
   version="1.0"
   id="Layer_1"
   viewBox="0 0 32 17"
   enable-background="new 0 0 64 64"
   xml:space="preserve"
   fill="#000000"
   width="32"
   height="17"
   sodipodi:docname="town.svg"
   inkscape:version="1.3.2 (091e20e, 2023-11-25, custom)"
   xmlns:inkscape="http://www.inkscape.org/namespaces/inkscape"
   xmlns:sodipodi="http://sodipodi.sourceforge.net/DTD/sodipodi-0.dtd"
   xmlns="http://www.w3.org/2000/svg"
   xmlns:svg="http://www.w3.org/2000/svg"><defs
   id="defs1" /><sodipodi:namedview
   id="namedview1"
   pagecolor="#505050"
   bordercolor="#ffffff"
   borderopacity="1"
   inkscape:showpageshadow="0"
   inkscape:pageopacity="0"
   inkscape:pagecheckerboard="1"
   inkscape:deskcolor="#d1d1d1"
   inkscape:zoom="48.5"
   inkscape:cx="12.474227"
   inkscape:cy="12.42268"
   inkscape:window-width="2560"
   inkscape:window-height="1369"
   inkscape:window-x="-8"
   inkscape:window-y="73"
   inkscape:window-maximized="1"
   inkscape:current-layer="SVGRepo_iconCarrier" />
  <g
   id="SVGRepo_iconCarrier"
   transform="matrix(0.2659413,0,0,0.265625,7.4997952,0)">
    <path
   fill="#ebebec"
   d="m 62.79,29.172 -28,-28 C 34.009,0.391 32.985,0 31.962,0 30.939,0 29.915,0.391 29.134,1.172 l -28,28 c -1.562,1.566 -1.484,4.016 0.078,5.578 1.566,1.57 3.855,1.801 5.422,0.234 L 8,33.617 V 60 c 0,2.211 1.789,4 4,4 H 26.495339 V 45.364706 H 37.505287 V 64 H 52 c 2.211,0 4,-1.789 4,-4 V 33.695 l 1.195,1.195 c 1.562,1.562 3.949,1.422 5.516,-0.141 1.563,-1.561 1.645,-4.015 0.079,-5.577 z"
   id="path1"
   sodipodi:nodetypes="csssccccssccccsscscc" />
  </g>
</svg>
